<svg width="40" height="40" viewBox="0 0 40 40" fill="none" xmlns="http://www.w3.org/2000/svg">
<path d="M19.9831 2.58752C21.0045 2.58752 22.0041 2.73586 22.7575 3.01721V3.01819L31.0749 6.13538H31.0759C33.2954 6.96215 35.0505 9.50773 35.0505 11.8668V24.2496C35.0505 25.3368 34.7063 26.5896 34.1237 27.7487C33.5777 28.8349 32.8403 29.8025 32.0309 30.4557L31.8679 30.5826L24.7009 35.9323L24.695 35.9371C23.4123 36.9262 21.7237 37.4332 19.9997 37.4332C18.277 37.4332 16.5846 36.9264 15.2643 35.9479H15.2634L8.0993 30.5992C7.2266 29.9485 6.42526 28.921 5.84247 27.7594C5.25962 26.5977 4.91669 25.3448 4.91669 24.2662V11.8668C4.91669 9.58136 6.56336 7.12051 8.68427 6.21741L8.8913 6.13538H8.89227L17.2087 3.01819C17.9621 2.73667 18.9615 2.58755 19.9831 2.58752ZM20.0007 4.08557C19.3018 4.08748 18.5814 4.17028 17.988 4.34924L17.7419 4.43127L17.7409 4.43225L9.4245 7.54846H9.42352C8.59602 7.86005 7.85479 8.52257 7.32391 9.29065C6.79283 10.059 6.43329 10.99 6.43329 11.8834V24.2662C6.43329 25.1607 6.74387 26.1894 7.20087 27.1012C7.60057 27.8987 8.13718 28.6562 8.73895 29.1871L9.00067 29.401L16.1677 34.7506C17.2295 35.5445 18.6281 35.9253 20.0016 35.9254C21.2898 35.9254 22.6029 35.5903 23.6432 34.8951L23.8474 34.7516L23.8493 34.7506L31.0153 29.401L31.0163 29.4C31.731 28.864 32.3666 28.005 32.822 27.0944C33.2773 26.1837 33.5837 25.1597 33.5837 24.2662V11.8668C33.5837 10.9808 33.2233 10.054 32.6931 9.28674C32.1958 8.56731 31.5142 7.93799 30.7516 7.59827L30.5974 7.53381L30.5925 7.53186L22.2751 4.41467L22.2663 4.41174L22.0182 4.33264C21.4214 4.16209 20.7 4.08367 20.0007 4.08557Z" fill="#FAFAFA" stroke="#FAFAFA"/>
<path d="M24.4039 14.77C24.674 14.5002 25.1154 14.4831 25.4069 14.7192L25.4635 14.77C25.7336 15.0402 25.75 15.4824 25.5133 15.7739L25.4635 15.8295L18.2965 22.9965C18.1452 23.1478 17.9574 23.2162 17.7662 23.2162C17.5991 23.2162 17.4352 23.1636 17.2955 23.0493L17.2369 22.9965L14.5533 20.3129C14.2836 20.0429 14.2666 19.6015 14.5026 19.31L14.5533 19.2534C14.8234 18.9833 15.2657 18.9662 15.5573 19.2026L15.6129 19.2534L17.7662 21.4067L18.1207 21.0532L24.4039 14.77Z" fill="#FAFAFA" stroke="#FAFAFA"/>
</svg>
